<svg width="25" height="25" viewBox="0 0 25 25" fill="none" xmlns="http://www.w3.org/2000/svg">
<rect width="25" height="25" rx="12.5" fill="white"/>
<path d="M8.56013 19V7.08H12.8961C13.6961 7.08 14.4001 7.22933 15.0081 7.528C15.6268 7.816 16.1068 8.24267 16.4481 8.808C16.7895 9.36267 16.9601 10.0293 16.9601 10.808C16.9601 11.576 16.7841 12.2373 16.4321 12.792C16.0908 13.3467 15.6161 13.7733 15.0081 14.072C14.4001 14.3707 13.6961 14.52 12.8961 14.52H10.4481V19H8.56013ZM10.4481 12.84H12.9441C13.3708 12.84 13.7441 12.7547 14.0641 12.584C14.3841 12.4133 14.6348 12.1787 14.8161 11.88C14.9975 11.5707 15.0881 11.208 15.0881 10.792C15.0881 10.376 14.9975 10.0187 14.8161 9.72C14.6348 9.41067 14.3841 9.176 14.0641 9.016C13.7441 8.84533 13.3708 8.76 12.9441 8.76H10.4481V12.84Z" fill="#0C71C5"/>
</svg>
