<svg width="75" height="35" viewBox="0 0 75 35" fill="none" xmlns="http://www.w3.org/2000/svg">
<rect width="26" height="35" rx="3" fill="white"/>
<path d="M8.87925 27V9.12H11.7113V24.48H19.4393V27H8.87925Z" fill="#0C71F5"/>
<path d="M35.8636 27.288C34.5836 27.288 33.4156 26.992 32.3596 26.4C31.3196 25.808 30.4876 25 29.8636 23.976C29.2556 22.952 28.9516 21.784 28.9516 20.472C28.9516 19.16 29.2556 17.992 29.8636 16.968C30.4876 15.944 31.3196 15.136 32.3596 14.544C33.3996 13.952 34.5676 13.656 35.8636 13.656C37.1436 13.656 38.3036 13.952 39.3436 14.544C40.3836 15.136 41.2076 15.944 41.8156 16.968C42.4396 17.976 42.7516 19.144 42.7516 20.472C42.7516 21.784 42.4396 22.952 41.8156 23.976C41.1916 25 40.3596 25.808 39.3196 26.4C38.2796 26.992 37.1276 27.288 35.8636 27.288ZM35.8636 24.408C36.5676 24.408 37.1836 24.24 37.7116 23.904C38.2556 23.568 38.6796 23.104 38.9836 22.512C39.3036 21.904 39.4636 21.224 39.4636 20.472C39.4636 19.704 39.3036 19.032 38.9836 18.456C38.6796 17.864 38.2556 17.4 37.7116 17.064C37.1836 16.712 36.5676 16.536 35.8636 16.536C35.1436 16.536 34.5116 16.712 33.9676 17.064C33.4236 17.4 32.9916 17.864 32.6716 18.456C32.3676 19.032 32.2156 19.704 32.2156 20.472C32.2156 21.224 32.3676 21.904 32.6716 22.512C32.9916 23.104 33.4236 23.568 33.9676 23.904C34.5116 24.24 35.1436 24.408 35.8636 24.408ZM51.4719 32.28C50.4959 32.28 49.5919 32.12 48.7599 31.8C47.9279 31.48 47.2079 31.032 46.5999 30.456C46.0079 29.896 45.5759 29.232 45.3039 28.464L48.2319 27.36C48.4239 27.968 48.7999 28.456 49.3599 28.824C49.9359 29.208 50.6399 29.4 51.4719 29.4C52.1119 29.4 52.6719 29.28 53.1519 29.04C53.6479 28.8 54.0319 28.448 54.3039 27.984C54.5759 27.536 54.7119 26.992 54.7119 26.352V23.376L55.3119 24.096C54.8639 24.88 54.2639 25.472 53.5119 25.872C52.7599 26.272 51.9039 26.472 50.9439 26.472C49.7279 26.472 48.6399 26.192 47.6799 25.632C46.7199 25.072 45.9679 24.304 45.4239 23.328C44.8799 22.352 44.6079 21.256 44.6079 20.04C44.6079 18.808 44.8799 17.712 45.4239 16.752C45.9679 15.792 46.7119 15.04 47.6559 14.496C48.5999 13.936 49.6719 13.656 50.8719 13.656C51.8479 13.656 52.7039 13.864 53.4399 14.28C54.1919 14.68 54.8159 15.264 55.3119 16.032L54.8799 16.824V13.944H57.8559V26.352C57.8559 27.488 57.5759 28.504 57.0159 29.4C56.4719 30.296 55.7199 31 54.7599 31.512C53.8159 32.024 52.7199 32.28 51.4719 32.28ZM51.3279 23.568C51.9999 23.568 52.5839 23.424 53.0799 23.136C53.5919 22.832 53.9919 22.416 54.2799 21.888C54.5679 21.36 54.7119 20.752 54.7119 20.064C54.7119 19.392 54.5599 18.792 54.2559 18.264C53.9679 17.72 53.5679 17.296 53.0559 16.992C52.5599 16.688 51.9839 16.536 51.3279 16.536C50.6719 16.536 50.0799 16.688 49.5519 16.992C49.0239 17.296 48.6079 17.72 48.3039 18.264C48.0159 18.792 47.8719 19.392 47.8719 20.064C47.8719 20.736 48.0159 21.336 48.3039 21.864C48.6079 22.392 49.0159 22.808 49.5279 23.112C50.0559 23.416 50.6559 23.568 51.3279 23.568ZM67.1761 27.288C65.8961 27.288 64.7281 26.992 63.6721 26.4C62.6321 25.808 61.8001 25 61.1761 23.976C60.5681 22.952 60.2641 21.784 60.2641 20.472C60.2641 19.16 60.5681 17.992 61.1761 16.968C61.8001 15.944 62.6321 15.136 63.6721 14.544C64.7121 13.952 65.8801 13.656 67.1761 13.656C68.4561 13.656 69.6161 13.952 70.6561 14.544C71.6961 15.136 72.5201 15.944 73.1281 16.968C73.7521 17.976 74.0641 19.144 74.0641 20.472C74.0641 21.784 73.7521 22.952 73.1281 23.976C72.5041 25 71.6721 25.808 70.6321 26.4C69.5921 26.992 68.4401 27.288 67.1761 27.288ZM67.1761 24.408C67.8801 24.408 68.4961 24.24 69.0241 23.904C69.5681 23.568 69.9921 23.104 70.2961 22.512C70.6161 21.904 70.7761 21.224 70.7761 20.472C70.7761 19.704 70.6161 19.032 70.2961 18.456C69.9921 17.864 69.5681 17.4 69.0241 17.064C68.4961 16.712 67.8801 16.536 67.1761 16.536C66.4561 16.536 65.8241 16.712 65.2801 17.064C64.7361 17.4 64.3041 17.864 63.9841 18.456C63.6801 19.032 63.5281 19.704 63.5281 20.472C63.5281 21.224 63.6801 21.904 63.9841 22.512C64.3041 23.104 64.7361 23.568 65.2801 23.904C65.8241 24.24 66.4561 24.408 67.1761 24.408Z" fill="white"/>
</svg>
